<?xml version="1.0" encoding="utf-8" ?>
<svg xmlns="http://www.w3.org/2000/svg" xmlns:xlink="http://www.w3.org/1999/xlink" width="377" height="203">
	<path fill="#49663B" d="M55.2934 80.6033C59.0223 80.2884 63.019 80.4813 66.7366 80.8975C80.955 82.4155 93.9727 89.5662 102.881 100.752C106.454 105.244 111.67 112.986 110.895 118.901C110.82 119.47 110.635 120.142 110.148 120.493C107.873 122.132 93.6584 121.572 90.6447 120.897C87.1101 118.111 84.2949 112.831 80.7378 109.503C74.6728 103.829 66.1958 101.916 58.108 102.195C49.3661 102.438 41.0955 106.212 35.1835 112.656C27.7041 120.73 24.9662 131.397 25.4158 142.171C25.8537 152.209 30.2391 161.669 37.6174 168.49C44.0742 174.446 52.6382 177.584 61.4147 177.21C71.2073 176.748 78.6414 172.372 85.1226 165.267C86.8865 163.231 88.0633 161.034 90.3957 159.535C93.8362 159.274 107.105 158.722 109.506 160.736C110.121 161.252 110.418 162.039 110.49 162.822C110.92 167.474 105.006 175.296 102.005 178.859C92.8805 189.691 79.7812 197.314 65.5304 198.506C49.792 199.823 34.9345 196.287 22.7335 185.929C10.054 175.165 4.2923 161.179 2.96807 144.866C1.65331 128.671 5.39107 112.706 16.081 100.154C26.4435 87.9863 39.4923 81.8572 55.2934 80.6033Z"/>
	<path fill="#49663B" d="M328.062 106.375C337.959 105.753 348.69 106.747 357.124 112.408C363.722 116.837 367.646 123.677 369.141 131.387C369.738 134.471 370.045 137.658 370.187 140.795C370.621 150.407 370.266 160.058 370.327 169.678C370.377 177.674 371.014 186.082 370.195 194.023C370.12 194.752 369.963 195.265 369.552 195.874C366.276 196.978 354.643 197.178 351.211 196.11C348.177 195.166 350.1 188.593 348.795 186.211C348.766 186.159 348.736 186.108 348.706 186.057C348.409 187.064 347.499 187.929 346.759 188.641C339.539 195.587 330.719 198.393 320.816 198.176C312.565 197.994 302.777 195.668 297.134 189.248C295.388 187.262 294.209 184.559 292.403 182.733C292.367 182.697 292.33 182.661 292.293 182.624C292.421 181.386 290.744 176.425 290.532 174.595C289.839 168.634 291.943 162.225 295.665 157.565C302.541 148.955 314.031 146.166 324.551 145.548C329.707 145.245 334.864 145.393 340.006 144.812C342.367 144.546 346.234 144.089 347.796 142.039C348.777 140.752 348.578 139.075 348.37 137.574C347.789 133.377 346.147 129.698 342.688 127.103C339.018 124.349 334.199 123.512 329.721 124.166C325.01 124.853 320.697 126.959 317.986 130.963C317.002 132.418 316.223 134.04 315.164 135.441C314.299 136.587 313.24 136.863 311.877 137.038C309.135 137.39 298.268 137.79 296.282 136.18C295.475 135.525 295.221 134.378 295.151 133.393C294.797 128.362 297.938 122.477 301.124 118.783C307.865 110.969 317.935 107.143 328.062 106.375ZM335.049 158.625C328.802 159.106 320.385 159.677 316.016 164.751C314.127 166.946 313.263 169.892 313.506 172.767C313.723 175.341 315.052 177.672 317.017 179.325C319.516 181.427 323.489 182.33 326.687 182.299C332.319 182.267 338.085 180.818 342.153 176.69C346.467 172.314 348.696 164.999 348.608 158.952C348.605 158.708 348.613 158.66 348.492 158.443C344.041 158.43 339.485 158.291 335.049 158.625Z"/>
	<path fill="#709D4D" d="M229.401 73.7181C229.421 73.6648 229.442 73.6118 229.461 73.5582C230.069 71.874 230.098 62.4234 230.49 59.33C232.896 40.3317 244.633 25.2433 261.608 16.7732C265.733 14.72 269.991 12.9464 274.354 11.4643C280.87 9.30083 309.101 1.90983 314.831 3.82066C315.395 4.00852 315.712 4.32581 315.975 4.84873C318.906 10.6828 314.154 32.064 311.931 38.3583C306.586 53.4949 295.49 67.7314 280.832 74.7339C270.298 79.7662 257.841 79.6329 246.425 80.5609C243.266 80.8177 240.203 81.5478 237.017 81.5287C235.076 84.5982 233.483 87.6884 231.881 90.9375C230.954 92.8156 229.636 95.6074 227.458 96.2831C227.014 96.421 226.5 96.4097 226.089 96.1772C219.573 92.4922 231.786 81.9737 229.442 73.8517C229.429 73.807 229.414 73.7626 229.401 73.7181Z"/>
	<path fill="#49663B" d="M229.401 73.7181C229.424 73.7618 229.447 73.8051 229.469 73.8493C230.044 75.0133 229.323 77.1847 230.407 77.9001C232.809 75.9075 235.529 70.74 237.431 67.9391C238.643 66.1829 239.955 64.4984 241.361 62.894C250.663 52.1737 261.734 43.3042 273.661 35.6786C275.45 34.535 277.352 33.6224 279.142 32.506C281.846 30.8195 286.452 27.0796 289.774 27.3173C290.672 27.3815 291.298 27.7961 291.865 28.4754C292.318 29.0182 292.581 29.6191 292.493 30.3369C292.333 31.6371 291.136 32.6959 290.136 33.4358C286.874 35.8497 282.948 37.3661 279.541 39.6362C265.103 49.2579 251.01 59.8946 241.042 74.3637C239.71 76.2974 237.562 79.2699 237.017 81.5287C235.076 84.5982 233.483 87.6884 231.881 90.9375C230.954 92.8156 229.636 95.6074 227.458 96.2831C227.014 96.421 226.5 96.4097 226.089 96.1772C219.573 92.4922 231.786 81.9737 229.442 73.8517C229.429 73.807 229.414 73.7626 229.401 73.7181Z"/>
	<path fill="#49663B" d="M139.319 108.624C141.589 108.652 145.336 108.305 147.316 109.471C148.315 110.06 148.552 111.434 148.675 112.499C149.047 115.698 148.746 119.168 148.735 122.401L148.661 142.24C148.607 150.447 147.972 158.934 150.249 166.93C151.526 171.416 154.034 175.828 158.249 178.131C162.295 180.341 167.724 180.432 172.07 179.147C187.879 174.472 187.12 153.508 187.132 140.264C187.163 133.784 187.125 127.304 187.019 120.824C186.968 118.323 186.377 112.137 187.622 109.996C187.897 109.524 188.571 109.284 189.082 109.144C192.36 108.252 204.97 108.088 207.988 109.813C208.203 110.074 208.311 110.314 208.392 110.641C208.944 112.885 208.746 115.711 208.798 118.032C208.972 125.905 208.739 133.711 208.672 141.579C208.653 143.922 209.067 146.692 208.752 148.988C208.708 149.312 208.574 149.59 208.408 149.867C208.589 150.144 208.704 150.414 208.777 150.738C209.292 153.003 208.772 159.973 208.768 162.82C208.753 172.493 209.293 182.369 208.609 192.021C208.514 193.354 208.487 194.788 207.767 195.955C207.565 196.073 207.349 196.134 207.123 196.192C203.976 196.995 190.855 197.033 188.112 195.429C185.864 192.711 186.87 187.417 187.148 184.198C186.231 186.168 185.222 187.944 183.775 189.581C178.444 195.608 170.684 197.755 162.942 198.2C153.894 198.719 144.603 196.471 137.739 190.329C129.551 183.002 127.254 171.185 126.686 160.688C126.217 152.009 126.555 143.219 126.528 134.526C126.507 127.491 126.047 120.253 126.526 113.248C126.589 112.324 126.671 110.718 127.336 110.033C129.307 108.003 136.48 108.644 139.319 108.624Z"/>
	<path fill="#49663B" d="M270.332 107.375C273.268 107.243 277.746 106.824 280.355 108.324C281.446 108.952 282.116 109.983 282.406 111.191C282.976 113.566 282.677 126.366 281.25 128.296C279.673 130.429 269.966 129.085 267.106 129.36C255.633 130.463 250.706 140.906 249.632 151.251C249.114 156.233 249.451 161.529 249.466 166.543L249.519 187.021C249.523 189.374 250.071 193.932 248.532 195.788C245.449 197.28 233.854 196.84 230.266 196.427C229.101 196.293 228.899 196.018 228.199 195.132C228.395 194.664 228.372 194.216 228.354 193.721C227.7 173.648 227.53 153.561 227.845 133.48C227.92 129.93 228.834 111.34 228.169 109.524C232.508 108.71 244.439 107.612 248.332 109.499C248.859 109.754 249.111 110.09 249.29 110.642C250.036 112.942 249.964 119.457 248.807 121.62C251.087 120.027 252.204 116.893 253.956 114.764C258.008 109.842 264.212 107.943 270.332 107.375Z"/>
</svg>
