<?xml version="1.0" encoding="utf-8" ?>
<svg xmlns="http://www.w3.org/2000/svg" xmlns:xlink="http://www.w3.org/1999/xlink" width="377" height="203">
	<path fill="#8DC127" d="M106.737 159.613C107.965 159.816 109.177 160.025 109.94 161.126C110.654 162.157 110.674 163.435 110.435 164.624C108.929 172.116 99.8383 182.014 94.0931 186.819C92.4585 188.186 90.5543 189.398 88.7728 190.57C76.6426 198.55 60.4559 200.602 46.3658 197.677C32.916 194.885 19.884 186.141 12.3429 174.624C3.37541 160.93 0.619334 140.869 3.93702 124.988C6.9929 110.377 15.7222 97.5769 28.208 89.3975C41.208 80.9005 57.1856 78.5452 72.3166 81.732C86.1642 84.7103 98.2571 93.0775 105.925 104.986C108.343 108.695 111.964 114.944 110.917 119.51C110.831 119.883 110.61 120.334 110.275 120.532C107.662 122.076 93.816 121.774 90.7294 120.932L90.5389 120.879C87.8967 118.485 85.961 115.372 83.6629 112.663C76.9258 104.719 67.9918 101.765 57.7758 102.246C49.0214 102.641 40.7887 106.522 34.9121 113.023C27.5498 121.127 24.9194 132.105 25.4798 142.828C25.9822 152.443 30.732 162.283 37.9123 168.722C44.2515 174.407 52.8629 177.654 61.4075 177.188C70.9509 176.668 78.3445 172.528 84.6105 165.501C85.3895 164.627 86.3809 163.104 87.2836 162.453C88.2096 161.031 89.254 160.229 90.6693 159.359C95.898 158.996 101.516 159.239 106.737 159.613Z"/>
	<path fill="#8DC127" d="M327.079 106.375C335.349 105.746 344.363 106.176 352.029 109.562C359.403 112.82 364.761 118.346 367.671 125.864C369.136 129.648 369.699 133.649 370.033 137.671C370.582 144.288 371.003 193.181 369.84 195.799C369.789 195.836 369.743 195.882 369.688 195.912C367.339 197.186 353.817 196.965 351.08 196.065C348.167 195.108 349.944 188.227 348.695 185.833C348.665 185.775 348.633 185.719 348.602 185.662C348.604 185.701 348.608 185.741 348.609 185.781C348.631 186.911 347.447 188.107 346.675 188.857C339.629 195.704 330.761 198.373 321.109 198.277C312.983 198.197 302.988 195.757 297.378 189.54C295.582 187.549 294.348 184.805 292.515 182.988C292.476 182.95 292.437 182.913 292.399 182.875C292.588 181.646 290.951 177.733 290.648 176.209C290.058 173.237 290.337 169.926 291.063 167.006C292.427 161.279 295.81 156.236 300.592 152.801C312.661 143.964 325.93 146.413 339.64 144.807C341.914 144.541 344.411 144.273 346.4 143.041C347.479 142.374 348.266 141.437 348.541 140.181C349.192 137.203 347.443 133.097 345.864 130.629C343.679 127.214 340.667 125.355 336.745 124.488C330.428 123.093 322.125 125.052 318.243 130.591C317.022 132.333 315.815 135.657 314.006 136.743C313.962 136.77 313.917 136.794 313.872 136.82C313.488 136.957 313.055 137.022 312.652 137.083C309.759 137.523 298.351 137.86 296.218 136.217C295.455 135.629 295.2 134.61 295.112 133.696C294.622 128.565 297.787 122.853 300.91 119.03C307.318 111.188 317.18 107.345 327.079 106.375ZM325.187 182.265C331.091 182.406 337.251 181.389 341.699 177.157C345.883 173.178 348.433 166.108 348.56 160.372C348.574 159.742 348.612 159.032 348.413 158.431C344.392 158.477 340.344 158.421 336.329 158.625C329.537 159.138 320.876 159.289 316.094 164.888C314.213 167.117 313.286 169.998 313.514 172.906C313.727 175.453 315.036 177.696 316.983 179.315C319.343 181.276 322.255 181.744 325.187 182.265Z"/>
	<path fill="#709D4C" d="M229.182 78.245C229.203 78.1906 229.225 78.1365 229.246 78.0818C230.221 75.4903 229.753 66.9112 230.063 63.4212C231.309 49.3766 235.488 38.8037 245.418 28.6236C250.632 23.278 256.396 19.1684 263.132 15.9422C276.024 9.76672 290.728 6.56654 304.774 4.35204C307.54 3.91599 312.103 2.80202 314.769 3.77559C315.467 4.0308 315.815 4.55135 316.099 5.22016C318.449 10.7652 315.016 27.6822 313.447 33.5199C312.664 36.4241 311.675 39.2691 310.488 42.0331C304.378 56.4727 293.159 69.8798 278.351 75.8697C268.736 79.7591 257.43 79.6761 247.219 80.4964C243.757 80.7745 240.328 81.3634 236.869 81.6574C234.849 84.7797 233.316 87.988 231.694 91.3145C230.862 93.0214 229.538 95.6487 227.58 96.2659C227.066 96.4282 226.541 96.3843 226.072 96.1164C219.314 92.261 230.587 83.2727 229.222 78.3806C229.21 78.3352 229.195 78.2902 229.182 78.245Z"/>
	<path fill="#8DC127" d="M229.182 78.245C229.24 78.231 229.299 78.2181 229.358 78.203C231.89 77.5453 236.129 69.8235 237.801 67.4453C239.045 65.6756 240.406 63.9124 241.838 62.2903C245.891 57.6978 250.412 53.3123 255.065 49.3364C262.743 42.7755 271.037 37.2599 279.664 32.0434C282.105 30.5679 284.692 28.737 287.409 27.8434C288.603 27.4508 290.057 27.2067 291.217 27.8228C291.773 28.118 292.26 28.6275 292.442 29.2402C292.643 29.9193 292.434 30.5884 292.098 31.1858C291.501 32.2476 290.521 33.0954 289.536 33.7917C286.67 35.8188 283.364 37.298 280.369 39.1384C274.007 43.0481 267.64 47.5014 261.883 52.2598C254.336 58.4972 246.844 66.0256 241.252 74.0804C239.594 76.4688 238.54 79.346 236.869 81.6574C234.849 84.7797 233.316 87.988 231.694 91.3145C230.862 93.0214 229.538 95.6487 227.58 96.2659C227.066 96.4282 226.541 96.3843 226.072 96.1164C219.314 92.261 230.587 83.2727 229.222 78.3806C229.21 78.3352 229.195 78.2902 229.182 78.245Z"/>
	<path fill="#8DC127" d="M194.078 108.63C197.42 108.58 205.226 107.978 207.961 109.79C208.414 110.211 208.514 110.79 208.601 111.378C209.012 114.129 208.889 117.124 208.934 119.908C209.056 127.422 208.768 134.899 208.771 142.403L208.936 173.03C208.966 178.641 209.143 184.305 208.884 189.911C208.806 191.598 208.857 194.585 207.832 195.956C205.558 197.141 193.322 197.049 190.452 196.579C189.41 196.408 188.598 196.134 187.976 195.241C185.85 192.187 186.684 187.665 187.277 184.247C186.162 186.452 184.942 188.423 183.2 190.2C177.345 196.177 169.223 198.287 161.095 198.377C152.302 198.474 143.464 195.957 137.071 189.681C127.341 180.129 126.625 165.905 126.514 153.125L126.481 129.997C126.448 124.505 126.166 118.839 126.558 113.363C126.632 112.329 126.694 110.923 127.271 110.036C128.469 109.117 129.81 108.857 131.281 108.743C134.042 108.53 146.044 108.083 147.799 109.693C148.51 110.345 148.65 112.959 148.71 113.886C148.924 117.22 148.759 120.613 148.751 123.956L148.685 143.737C148.657 147.746 148.477 151.768 148.669 155.774C149.004 162.782 150.036 171.227 155.562 176.199C158.803 179.115 163.192 180.212 167.476 179.951C187.389 178.736 187.012 155.232 187.029 140.593C187.07 133.726 187.041 126.859 186.943 119.992C186.892 117.53 186.229 111.47 187.876 109.611C189.606 108.578 192.107 108.719 194.078 108.63Z"/>
	<path fill="#8DC127" d="M269.419 107.374C272.362 107.143 276.474 106.796 279.291 107.769C280.577 108.213 281.565 109.027 282.134 110.274C283.148 112.499 282.801 124.85 281.86 127.184C281.396 128.335 280.54 129.084 279.342 129.404C277.927 129.782 276.46 129.623 275.018 129.548C270.576 129.318 266.222 128.873 261.995 130.632C248.576 136.215 249.51 154.196 249.55 166.172L249.6 185.193C249.607 188.326 250.156 192.779 248.96 195.689C248.617 196.107 248.162 196.225 247.655 196.351C244.565 197.118 230.825 197.582 228.385 196.128C228.709 194.515 227.791 182.937 227.787 179.988C227.768 163.002 227.587 145.978 227.906 128.996C228.023 122.755 227.798 116.361 228.338 110.149C228.815 109.416 229.454 109.25 230.294 109.067C233.721 108.324 246.072 107.852 248.928 109.687C249.219 110.067 249.389 110.477 249.474 110.945C249.96 113.605 250.229 119.614 248.633 121.884C250.862 120.238 251.889 117.399 253.58 115.251C257.457 110.33 263.366 108.073 269.419 107.374Z"/>
</svg>
