<?xml version="1.0" encoding="utf-8" ?>
<svg xmlns="http://www.w3.org/2000/svg" xmlns:xlink="http://www.w3.org/1999/xlink" width="377" height="203">
	<path fill="white" d="M0 0L376.562 0C376.849 0.443914 376.946 0.8229 376.97 1.34797C377.209 6.63466 377 12.0331 377.001 17.3314L377.003 48.637L377.002 144.085L377.002 186.854C377.002 190.014 377.418 199.967 376.905 202.264C376.846 202.532 376.718 202.776 376.562 203L0 203L0 0Z"/>
	<path fill="#8CBF26" d="M54.6816 80.6053C56.3252 80.3429 58.2479 80.4244 59.9198 80.4373C74.901 80.5521 88.716 85.8489 99.2813 96.6117C104.047 101.467 111.203 111.291 111.057 118.155C111.04 118.963 110.936 120.08 110.28 120.656C108.683 122.057 93.3668 121.466 90.4268 121.177C86.9078 117.48 84.68 112.984 80.7103 109.567C73.6958 103.53 65.6255 101.658 56.568 102.335C48.0428 102.971 40.1128 106.945 34.5008 113.394C27.1123 122.008 24.659 132.734 25.5312 143.848C26.2892 153.507 31.3135 163.17 38.6915 169.43C45.8255 175.482 54.1925 177.897 63.4495 177.096C72.0659 176.351 79.7568 171.745 85.2572 165.193C86.7627 163.193 88.2102 160.981 90.1346 159.362C92.8478 159.342 107.811 159.081 109.182 160.166C109.987 160.802 110.438 161.781 110.53 162.786C110.958 167.449 104.665 175.779 101.669 179.343C92.1608 190.656 79.2346 197.498 64.5048 198.75C49.057 200.063 34.3347 195.971 22.4084 185.908C9.55624 175.064 4.1857 161.202 2.80414 144.735C1.4517 128.615 5.17381 112.955 15.7573 100.473C22.5508 92.461 32.4038 85.5998 42.5291 82.6395C46.5057 81.4769 50.5636 80.945 54.6816 80.6053Z"/>
	<path fill="#8CBF26" d="M327.357 106.374C328.16 106.323 328.963 106.28 329.766 106.245C340.837 105.77 352.257 107.415 360.737 115.245C367.993 121.946 369.871 131.298 370.252 140.739C370.639 150.336 370.34 160.038 370.349 169.646C370.357 177.487 370.749 185.527 370.268 193.336C370.221 194.1 370.22 195.221 369.68 195.806C367.167 197.067 354.009 197.097 351.155 196.285C348.157 195.432 350.017 188.438 348.66 186.081C348.634 186.036 348.606 185.992 348.579 185.947C348.298 187.748 345.136 190.263 343.731 191.459C336.892 197.281 326.533 198.823 317.79 198.119C310.316 197.518 301.33 194.585 296.377 188.63C294.793 186.727 293.794 184.289 292.219 182.484C292.187 182.447 292.154 182.41 292.121 182.374C292.309 181.325 290.809 177.621 290.54 176.274C290.3 175.07 290.215 173.818 290.231 172.592C290.302 167.073 292.368 161.352 295.947 157.141C311.012 139.412 341.184 148.82 347.578 142.369C348.4 141.539 348.567 140.634 348.564 139.5C348.554 135.409 346.89 131.022 343.954 128.17C340.786 125.094 336.614 123.891 332.275 123.956C326.404 124.044 320.406 126.903 317.216 131.938C316.265 133.439 315.494 135.591 314.242 136.821C314.203 136.859 314.163 136.897 314.123 136.935C311.333 137.277 298.085 137.713 296.202 136.392C295.502 135.9 295.159 134.864 295.06 134.057C294.451 129.085 297.698 123.037 300.678 119.296C307.203 111.109 317.281 107.493 327.357 106.374Z"/>
	<path fill="white" d="M345.863 158.375C346.64 158.353 347.798 158.174 348.505 158.498C349.007 161.954 347.279 168.301 345.842 171.42C343.745 175.972 340.316 179.248 335.586 180.959C329.709 183.085 323.438 182.9 317.811 180.268C317.591 179.832 316.999 179.409 316.646 179.065C314.915 177.377 313.731 175.667 313.564 173.17C313.36 170.124 314.149 166.879 316.191 164.555C322.137 157.791 337.315 158.92 345.863 158.375Z"/>
	<path fill="#6F9D4C" d="M229.278 79.0387C229.296 78.9878 229.315 78.9372 229.332 78.8859C229.648 77.9382 229.781 66.1971 229.96 63.9884C230.46 57.8286 231.495 51.7759 233.746 45.9953C238.475 33.8511 248.751 23.4791 260.154 17.4341C265.482 14.61 271.05 12.4929 276.781 10.6534C279.73 9.68039 282.718 8.82723 285.736 8.09599C290.252 7.00808 311.599 2.49697 314.952 3.60844C315.35 3.74035 315.727 4.01871 315.906 4.40082C318.832 10.6595 314.385 31.9931 311.9 38.7155C306.292 53.8841 295.346 68.1918 280.42 75.0634C270.086 79.8205 257.276 79.6852 246.121 80.6724C243.038 80.9452 239.819 81.6867 236.753 81.7803C236.277 83.2468 234.617 85.0614 233.839 86.4996C232.523 88.9317 231.828 91.6952 230.295 94.035C229.657 95.0098 228.787 96.068 227.576 96.2902C226.851 96.4233 226.132 96.1724 225.553 95.7366C220.129 91.647 230.036 83.6464 229.306 79.1687C229.299 79.125 229.288 79.082 229.278 79.0387Z"/>
	<path fill="#8CBF26" d="M229.278 79.0387C229.307 79.022 229.336 79.0056 229.364 78.9885C231.557 77.6545 235.845 69.9453 237.735 67.405C239.49 65.0478 241.418 62.7902 243.388 60.6112C253.696 49.2043 266.557 39.5562 279.883 31.9819C282.333 30.5893 287.502 26.7486 290.395 27.3821C291.11 27.5387 291.683 28.1749 292.053 28.7759C292.437 29.3988 292.583 30.1463 292.383 30.8584C292.079 31.9419 291.103 32.7954 290.218 33.4246C287.309 35.4932 283.881 36.8795 280.834 38.7395C279.567 39.5128 278.395 40.5101 277.145 41.3269C271.793 44.8221 266.636 48.2489 261.716 52.3682C253.447 59.2901 241.114 71.7734 236.753 81.7803C236.277 83.2468 234.617 85.0614 233.839 86.4996C232.523 88.9317 231.828 91.6952 230.295 94.035C229.657 95.0098 228.787 96.068 227.576 96.2902C226.851 96.4233 226.132 96.1724 225.553 95.7366C220.129 91.647 230.036 83.6464 229.306 79.1687C229.299 79.125 229.288 79.082 229.278 79.0387Z"/>
	<path fill="#8CBF26" d="M130.494 108.824C133.946 108.678 145.084 108.076 147.663 109.533C148.396 110.416 148.613 111.376 148.729 112.499C149.044 115.555 148.764 118.889 148.758 121.976L148.721 143.359C148.711 151.06 148.123 159.405 150.223 166.892C151.431 171.199 153.912 175.804 157.951 178.035C161.785 180.153 167.174 180.683 171.362 179.452C187.784 174.626 186.978 155.205 186.98 141.367L186.958 119.905C186.957 117.058 186.361 112.232 187.755 109.75C187.972 109.365 188.442 109.214 188.856 109.104C191.345 108.444 205.648 108.297 207.676 109.557C208.084 109.811 208.389 110.166 208.496 110.631C209.129 113.363 209.09 137.635 208.772 141.284C208.736 141.697 208.599 142.027 208.379 142.374C208.407 142.421 208.436 142.467 208.462 142.514C208.652 142.857 208.764 143.238 208.789 143.63C209.204 150.897 208.819 158.38 208.831 165.667C208.845 174.192 209.216 182.865 208.822 191.376C208.755 192.828 208.52 194.187 208.144 195.588L207.791 195.377L208.067 195.78C208.023 195.827 207.981 195.876 207.935 195.921C206.634 197.184 193.593 196.763 191.017 196.639C189.878 196.584 188.719 196.28 187.947 195.384C186.135 193.283 186.838 187.696 186.993 185.013C186.517 185.862 186.041 186.732 185.491 187.536C181.927 192.746 175.256 196.481 169.13 197.601C159.466 199.367 148.778 198.401 140.553 192.71C132.811 187.354 129.265 179.237 127.658 170.252C127.008 166.616 126.746 163.016 126.598 159.328C126.248 150.599 126.515 141.779 126.501 133.04C126.49 126.463 126.11 119.638 126.53 113.085C126.592 112.118 126.665 110.776 127.26 109.984C127.971 109.04 129.416 108.986 130.494 108.824Z"/>
	<path fill="#8CBF26" d="M269.854 107.375C270.068 107.364 270.283 107.356 270.498 107.351C273.514 107.287 279.437 106.808 281.69 109.046C282.314 109.665 282.583 110.422 282.599 111.288C282.648 113.933 282.709 127.208 281.23 128.653C278.963 130.869 272.389 129.192 269.368 129.219C260.526 129.301 255.132 133.755 251.999 141.818C250.969 144.469 250.155 147.235 249.805 150.064C249.15 155.355 249.499 160.995 249.498 166.334L249.503 188.14C249.501 189.905 249.866 194.597 248.641 195.837C245.627 197.363 232.445 196.883 228.802 196.258C228.2 194.572 228.107 192.864 228.043 191.092C227.786 184.018 227.69 111.564 228.394 109.957C228.573 109.548 228.821 109.477 229.224 109.329C232.141 108.258 246.025 108.234 248.732 109.543C249.027 109.686 249.237 110.12 249.332 110.431C249.847 112.117 249.796 120.155 248.974 121.675L248.93 121.754C251.032 120.168 252.2 116.721 254.017 114.678C258.067 110.126 263.862 107.742 269.854 107.375Z"/>
</svg>
